<svg width="256" height="256" viewBox="0 0 200 200" xmlns="http://www.w3.org/2000/svg">
  <defs>
    <linearGradient id="bg" x1="0" y1="0" x2="1" y2="1">
      <stop offset="0%" stop-color="#211510" />
      <stop offset="100%" stop-color="#5c2717" />
    </linearGradient>
    <linearGradient id="ember" x1="0" y1="0" x2="1" y2="1">
      <stop offset="0%" stop-color="#ffcf6e" />
      <stop offset="100%" stop-color="#ea5b2a" />
    </linearGradient>
  </defs>
  <rect x="8" y="8" width="184" height="184" rx="44" fill="url(#bg)" />
  <path d="M100 18c31 0 62 22 62 58 0 43-40 59-62 106-22-47-62-63-62-106 0-36 31-58 62-58Z" fill="url(#ember)"/>
  <path d="M88 68c18-6 39 6 39 27 0 22-18 31-29 47-8-15-25-23-25-42 0-13 6-24 15-32Z" fill="#16110c"/>
  <path d="M126 82 76 111l31 18-12 25 44-40-31-17Z" fill="#fff7e9"/>
</svg>
